<svg width="16" height="16" viewBox="0 0 16 16" fill="none" xmlns="http://www.w3.org/2000/svg">
<path fill-rule="evenodd" clip-rule="evenodd" d="M11.3546 10.4117C12.1757 9.38528 12.6667 8.08329 12.6667 6.66669C12.6667 3.35316 9.98027 0.666687 6.66675 0.666687C3.35322 0.666687 0.666748 3.35316 0.666748 6.66669C0.666748 9.98021 3.35322 12.6667 6.66675 12.6667C8.08335 12.6667 9.38534 12.1757 10.4118 11.3546L14.1953 15.1381C14.4557 15.3984 14.8778 15.3984 15.1382 15.1381C15.3985 14.8777 15.3985 14.4556 15.1382 14.1953L11.3546 10.4117ZM6.66675 2.00002C9.24389 2.00002 11.3334 4.08954 11.3334 6.66669C11.3334 9.24383 9.24389 11.3334 6.66675 11.3334C4.0896 11.3334 2.00008 9.24383 2.00008 6.66669C2.00008 4.08954 4.0896 2.00002 6.66675 2.00002Z" fill="#406A76"/>
</svg>
